<?xml version="1.0" encoding="utf-8"?>
<!DOCTYPE svg PUBLIC "-//W3C//DTD SVG 1.0//EN" "http://www.w3.org/TR/2001/REC-SVG-20010904/DTD/svg10.dtd">
<svg version="1.0" xmlns="http://www.w3.org/2000/svg" width="72px" height="72px" viewBox="0 0 72 72" preserveAspectRatio="xMidYMid meet">
 <g fill="#000000">
  <path d="M19.93 71.83 c-1.01 -0.14 -2.11 -0.75 -2.81 -1.52 -0.60 -0.68 -1.31 -2.24 -3.92 -8.68 -0.25 -0.65 -0.52 -1.17 -0.59 -1.17 -0.07 0 -0.55 0.17 -1.05 0.38 -1.25 0.52 -3.18 0.55 -4.39 0.07 -1.14 -0.45 -2.25 -1.29 -2.85 -2.18 -0.77 -1.13 -4.02 -9.07 -4.15 -10.15 -0.27 -2.39 0.82 -4.72 2.77 -5.95 0.37 -0.22 2.59 -1.20 4.94 -2.15 l4.26 -1.74 5.74 -6.50 5.75 -6.50 -0.76 -0.77 c-0.48 -0.49 -0.87 -1.07 -1.08 -1.59 l-0.32 -0.82 0 -9.28 c0 -7.40 0.04 -9.39 0.18 -9.84 0.48 -1.39 1.80 -2.71 3.19 -3.19 0.46 -0.15 3.61 -0.18 16.99 -0.18 l16.44 0 0.34 0.39 c0.42 0.49 0.42 0.69 0 1.18 l-0.34 0.39 -16.58 0.07 -16.59 0.07 -0.51 0.39 c-0.30 0.22 -0.65 0.65 -0.80 0.94 -0.27 0.53 -0.28 0.84 -0.28 9.70 0 7.37 0.04 9.24 0.20 9.60 0.24 0.60 1.07 1.31 1.73 1.49 0.35 0.10 3.77 0.15 9.82 0.15 9.01 0 9.30 0.01 9.75 0.28 0.25 0.15 0.58 0.48 0.75 0.73 0.25 0.41 0.28 0.62 0.21 1.63 -0.06 0.94 -0.04 1.17 0.11 1.11 0.10 -0.04 1.63 -0.90 3.39 -1.91 l3.21 -1.84 7.40 0 c4.72 0 7.59 -0.06 7.93 -0.15 0.66 -0.18 1.49 -0.89 1.73 -1.49 0.15 -0.37 0.20 -2.25 0.20 -9.63 0 -10.31 0.06 -9.69 -1.04 -10.59 l-0.53 -0.42 -2.92 -0.07 c-2.62 -0.06 -2.95 -0.10 -3.22 -0.34 -0.39 -0.35 -0.39 -1.08 0 -1.43 0.27 -0.24 0.53 -0.27 3.07 -0.27 1.91 0 2.92 0.06 3.32 0.20 1.39 0.45 2.71 1.79 3.19 3.18 0.14 0.45 0.18 2.45 0.18 9.84 l0 9.28 -0.32 0.80 c-0.44 1.05 -1.42 2.11 -2.49 2.60 l-0.84 0.39 -7.66 0.07 -7.66 0.07 -3.73 2.15 c-3.28 1.90 -3.78 2.15 -4.19 2.08 -1.05 -0.17 -1.29 -0.76 -1.13 -2.74 0.07 -0.80 0.10 -1.48 0.07 -1.50 -0.03 -0.04 -2.90 -0.04 -6.38 -0.03 l-6.33 0.04 1.45 3.52 c0.80 1.94 1.48 3.56 1.49 3.60 0.03 0.04 0.80 0.03 1.73 -0.03 2 -0.14 2.87 -0.01 3.77 0.59 0.93 0.60 1.31 1.20 2.18 3.33 0.68 1.66 0.79 2.05 0.79 2.84 0.01 1.46 -0.42 2.22 -2.11 3.73 -0.77 0.68 -1.41 1.28 -1.43 1.32 -0.01 0.06 0.38 1.11 0.89 2.33 0.80 1.95 0.90 2.29 0.77 2.62 -0.30 0.72 -1.29 0.82 -1.69 0.17 -0.10 -0.14 -2.36 -5.60 -5.06 -12.14 l-4.89 -11.88 -1.21 -0.04 c-0.66 -0.01 -1.21 0 -1.21 0.03 0 0.04 2.94 7.21 6.54 15.93 4.26 10.36 6.64 15.95 6.83 16.12 0.17 0.13 0.45 0.24 0.65 0.24 0.39 0 1.17 -0.70 1.17 -1.05 0 -0.13 -0.25 -0.84 -0.56 -1.58 -0.31 -0.75 -0.56 -1.50 -0.56 -1.69 0 -0.45 0.48 -0.89 0.97 -0.89 0.56 0 0.87 0.42 1.58 2.22 0.49 1.25 0.56 1.60 0.51 2.17 -0.14 1.11 -0.82 2.05 -1.74 2.45 -0.69 0.30 -2.10 0.25 -2.80 -0.10 -0.56 -0.27 -1.17 -0.90 -1.36 -1.42 -0.10 -0.30 -0.34 -0.31 -6.07 -0.68 -2.47 -0.15 -4.80 -0.31 -5.15 -0.35 l-0.66 -0.07 0.07 0.89 c0.06 0.72 0.01 1 -0.22 1.48 -0.34 0.66 -0.68 0.91 -1.90 1.45 -0.53 0.24 -0.84 0.45 -0.82 0.56 0.03 0.11 0.58 1.49 1.24 3.08 1.25 3.05 1.36 3.57 0.96 4.46 -0.31 0.63 -0.86 1.03 -2.24 1.59 -1.28 0.52 -2.24 0.69 -3.21 0.53z m2.57 -2.40 c0.58 -0.25 1.07 -0.56 1.10 -0.69 0.06 -0.31 -4.35 -10.94 -4.53 -10.94 -0.08 0.01 -1.14 0.42 -2.33 0.91 -1.39 0.58 -2.17 0.97 -2.14 1.08 0.13 0.51 3.60 8.80 3.84 9.13 0.75 1.05 2.35 1.25 4.06 0.51z m1.31 -9.89 c0.44 -0.24 0.48 -0.52 0.15 -1.32 -0.18 -0.46 -0.30 -0.56 -0.62 -0.56 -0.21 0 -0.77 -0.04 -1.25 -0.08 l-0.87 -0.10 0.30 0.76 c0.17 0.42 0.42 1.03 0.56 1.35 l0.27 0.60 0.53 -0.22 c0.30 -0.13 0.70 -0.32 0.93 -0.42z m-11.49 -1.13 c1.08 -0.44 2.01 -0.84 2.07 -0.90 0.11 -0.10 -5.84 -14.71 -6.07 -14.95 -0.11 -0.11 -2.70 0.89 -3.95 1.52 -0.83 0.42 -1.72 1.39 -2.04 2.21 -0.18 0.49 -0.22 0.93 -0.18 1.69 0.06 0.93 0.22 1.42 1.70 5.03 0.91 2.21 1.81 4.25 2 4.53 0.45 0.68 1.20 1.22 2.08 1.55 1.15 0.41 2.11 0.27 4.40 -0.68z m5.16 -2.12 c0.52 -0.20 0.93 -0.44 0.90 -0.52 -0.04 -0.08 -1.41 -3.42 -3.05 -7.40 -1.65 -3.98 -3.01 -7.31 -3.05 -7.41 -0.04 -0.10 -0.39 -0.01 -1.11 0.27 -0.60 0.25 -1.03 0.51 -0.98 0.59 0.17 0.39 5.89 14.26 6 14.54 0.15 0.39 0.13 0.39 1.29 -0.07z m19.36 0.11 c0 -0.18 -11.87 -28.95 -11.97 -29.01 -0.04 -0.01 -2.53 2.73 -5.53 6.12 -3.95 4.49 -5.41 6.23 -5.36 6.41 0.11 0.39 6.37 15.50 6.41 15.54 0.07 0.06 14.57 1.03 15.64 1.05 0.44 0 0.80 -0.04 0.80 -0.11z m3.19 -14.53 c0.46 -0.49 0.75 -1.05 0.75 -1.55 0 -0.49 -1.42 -3.83 -1.80 -4.23 -0.20 -0.21 -0.58 -0.44 -0.83 -0.51 -0.63 -0.18 -3.18 -0.03 -3.08 0.18 0.03 0.08 0.68 1.65 1.42 3.46 0.75 1.81 1.45 3.52 1.56 3.78 l0.20 0.46 0.66 -0.56 c0.38 -0.31 0.87 -0.77 1.13 -1.04z"/>
  <path d="M52.35 56.39 c-0.38 -0.22 -0.51 -0.45 -0.87 -1.65 -2.11 -6.86 -2.28 -7.44 -2.19 -7.86 0.14 -0.76 1.04 -1.36 1.81 -1.22 0.25 0.06 1.46 1.10 3.64 3.18 1.80 1.70 3.33 3.22 3.43 3.39 0.34 0.58 0.22 1.08 -0.35 1.62 -0.70 0.65 -4.33 2.83 -4.72 2.83 -0.15 0 -0.49 -0.13 -0.75 -0.28z m2.43 -2.84 c0.65 -0.39 1.17 -0.77 1.15 -0.83 -0.07 -0.17 -4.08 -3.94 -4.13 -3.88 -0.06 0.06 1.45 5.12 1.59 5.34 0.10 0.15 0.13 0.14 1.39 -0.63z"/>
  <path d="M60.65 48.63 c-2 -1.73 -6.20 -5.72 -6.43 -6.12 -0.22 -0.42 -0.24 -0.56 -0.10 -1.04 0.18 -0.59 0.82 -1.11 1.35 -1.11 0.39 0 8.61 1.93 8.90 2.10 0.46 0.25 0.79 0.73 0.79 1.18 0 0.53 -2.03 4.47 -2.60 5.06 -0.55 0.55 -1.22 0.52 -1.91 -0.07z m1.60 -3.25 c0.37 -0.68 0.62 -1.25 0.59 -1.28 -0.10 -0.10 -5.51 -1.36 -5.57 -1.31 -0.08 0.08 4.09 3.90 4.22 3.85 0.07 -0.01 0.41 -0.59 0.76 -1.27z"/>
  <path d="M61.38 37.70 c-2.24 -0.60 -4.22 -1.17 -4.39 -1.25 -0.83 -0.45 -1 -1.56 -0.35 -2.28 0.35 -0.39 0.75 -0.52 4.64 -1.55 2.35 -0.62 4.44 -1.13 4.68 -1.13 0.28 0 0.56 0.14 0.84 0.41 l0.41 0.41 0 2.69 c0 1.77 -0.06 2.80 -0.17 3.04 -0.20 0.42 -0.79 0.77 -1.27 0.76 -0.18 0 -2.15 -0.51 -4.40 -1.10z m3.84 -4.04 c-0.03 -0.01 -1.31 0.30 -2.85 0.72 -1.55 0.41 -2.71 0.79 -2.60 0.83 0.11 0.04 1.38 0.38 2.81 0.76 l2.60 0.69 0.04 -1.48 c0.01 -0.82 0.01 -1.49 0 -1.52z"/>
  <path d="M30.12 18.27 c-1.08 -0.53 -1.32 -1.43 -0.55 -2 l0.38 -0.30 0.63 0.31 c0.79 0.38 1.14 0.39 1.34 0.04 0.08 -0.17 0.14 -1.70 0.14 -3.99 0 -3.54 0.01 -3.74 0.30 -4.09 0.35 -0.45 0.98 -0.49 1.39 -0.08 0.27 0.27 0.28 0.46 0.28 4.29 0 3.68 -0.03 4.06 -0.27 4.54 -0.75 1.45 -2.24 1.97 -3.64 1.28z"/>
  <path d="M39.38 18.44 c-0.84 -0.27 -1.90 -0.93 -2.46 -1.50 -2.55 -2.62 -1.76 -6.96 1.55 -8.58 0.76 -0.37 0.98 -0.41 2.25 -0.41 1.24 0 1.50 0.04 2.21 0.38 1.14 0.53 2.14 1.52 2.67 2.63 0.41 0.83 0.45 1.05 0.45 2.19 0 1.60 -0.35 2.57 -1.34 3.66 -1.05 1.14 -2.19 1.66 -3.77 1.72 -0.66 0.01 -1.36 -0.01 -1.56 -0.08z m2.76 -2.11 c2.59 -1.18 2.69 -4.87 0.17 -6.12 -1.70 -0.84 -3.78 -0.17 -4.60 1.50 -0.35 0.72 -0.39 2.11 -0.11 2.81 0.72 1.69 2.90 2.55 4.54 1.80z"/>
  <path d="M47.73 18.27 c-0.25 -0.28 -0.27 -0.58 -0.27 -5.05 0 -4.47 0.01 -4.77 0.27 -5.05 0.25 -0.27 0.41 -0.30 2.11 -0.30 2.14 0 2.70 0.18 3.43 1.07 0.76 0.91 0.91 2.25 0.39 3.26 -0.18 0.37 -0.18 0.41 0.15 0.73 0.58 0.55 0.91 1.38 0.91 2.24 0.01 1.38 -0.69 2.47 -1.93 3.05 -0.63 0.31 -0.90 0.34 -2.76 0.34 -1.91 0 -2.07 -0.01 -2.32 -0.30z m4.57 -2.05 c0.60 -0.56 0.65 -1.39 0.08 -1.94 -0.31 -0.32 -0.45 -0.35 -1.69 -0.35 l-1.34 0 0 1.34 0 1.34 1.27 0 c1.18 0 1.29 -0.03 1.67 -0.38z m-0.55 -4.68 c0.37 -0.37 0.35 -0.84 -0.01 -1.32 -0.27 -0.34 -0.37 -0.37 -1.34 -0.37 l-1.04 0 0 0.98 0 0.98 1.05 0 c0.87 0 1.11 -0.06 1.34 -0.28z"/>
  <path d="M57.94 18.35 c-0.87 -0.27 -2.14 -1.18 -2.31 -1.66 -0.20 -0.53 0.04 -1.11 0.52 -1.28 0.42 -0.15 0.48 -0.13 1.62 0.66 1.05 0.75 2.81 0.65 3.26 -0.17 0.44 -0.84 0 -1.28 -2.12 -2.11 -1.80 -0.72 -2.39 -1.17 -2.74 -2.05 -0.45 -1.21 0.11 -2.70 1.29 -3.39 1.29 -0.76 3.45 -0.56 4.75 0.44 0.70 0.53 0.82 1.05 0.35 1.56 -0.31 0.34 -1.01 0.46 -1.17 0.21 -0.18 -0.30 -1.39 -0.72 -2.05 -0.72 -0.58 0 -0.79 0.07 -1.05 0.35 -0.35 0.34 -0.44 0.70 -0.24 1.01 0.06 0.10 0.84 0.46 1.74 0.82 1.91 0.76 2.77 1.42 3.15 2.39 0.77 2.03 -1 4.16 -3.43 4.13 -0.52 0 -1.22 -0.10 -1.58 -0.20z"/>
 </g>
</svg>