<?xml version="1.0" encoding="utf-8"?>
<!DOCTYPE svg PUBLIC "-//W3C//DTD SVG 1.0//EN" "http://www.w3.org/TR/2001/REC-SVG-20010904/DTD/svg10.dtd">
<svg version="1.0" xmlns="http://www.w3.org/2000/svg" width="72px" height="72px" viewBox="0 0 72 72" preserveAspectRatio="xMidYMid meet">
 <g fill="#000000">
  <path d="M57.47 69.58 c-2.80 -0.21 -5.70 -1.72 -7.51 -3.90 -0.94 -1.13 -2.05 -3.39 -2.35 -4.75 -0.32 -1.45 -0.30 -3.67 0.06 -5.05 0.31 -1.22 1.03 -2.81 1.67 -3.77 0.24 -0.35 0.44 -0.68 0.44 -0.75 0 -0.14 -4.11 -4.26 -4.25 -4.26 -0.07 0 -0.51 0.30 -0.98 0.65 -1.20 0.87 -3.45 1.95 -4.85 2.31 -2.29 0.59 -5.10 0.59 -7.40 0 -1.41 -0.35 -3.66 -1.43 -4.85 -2.31 -0.48 -0.35 -0.91 -0.65 -0.98 -0.65 -0.06 0 -0.91 0.82 -1.91 1.81 l-1.80 1.81 0.45 0.66 c0.52 0.76 1.01 1.93 1.27 3 l0.17 0.73 1.28 0 1.29 0 0.25 -0.62 c0.38 -0.94 1.13 -1.72 2.12 -2.19 2.67 -1.32 5.68 0.25 6.29 3.26 0.27 1.35 -0.35 3.05 -1.45 3.98 -1.38 1.17 -3.25 1.42 -4.84 0.63 -0.98 -0.48 -1.74 -1.27 -2.12 -2.19 l-0.25 -0.62 -1.28 0 -1.29 0 -0.22 0.96 c-0.80 3.22 -3.33 5.77 -6.55 6.58 -2.83 0.73 -6.03 -0.13 -8.21 -2.19 -1.87 -1.79 -2.78 -3.90 -2.78 -6.47 0 -2.56 0.79 -4.42 2.63 -6.26 1.27 -1.27 2.57 -2.03 4.19 -2.42 l0.94 -0.22 0 -1.28 0 -1.28 -0.62 -0.25 c-0.93 -0.38 -1.72 -1.14 -2.19 -2.12 -0.37 -0.73 -0.44 -1.04 -0.44 -1.88 -0.01 -2.24 1.43 -3.95 3.70 -4.40 1.35 -0.27 3.05 0.35 3.98 1.45 1.17 1.38 1.41 3.29 0.62 4.87 -0.48 0.97 -1.27 1.72 -2.18 2.10 l-0.62 0.25 0 1.29 0 1.28 0.70 0.15 c0.98 0.21 2.25 0.75 3.02 1.28 l0.66 0.45 1.81 -1.80 c1 -1 1.81 -1.86 1.81 -1.91 0 -0.07 -0.30 -0.51 -0.65 -0.98 -0.87 -1.20 -1.95 -3.45 -2.31 -4.85 -0.59 -2.29 -0.59 -5.10 0 -7.40 0.35 -1.41 1.43 -3.66 2.31 -4.85 0.35 -0.48 0.65 -0.91 0.65 -0.97 0 -0.14 -4.11 -4.26 -4.25 -4.26 -0.06 0 -0.53 0.28 -1.05 0.62 -1.21 0.77 -2.35 1.25 -3.75 1.56 -1.43 0.32 -4.23 0.22 -5.51 -0.18 -5.22 -1.66 -8.52 -6.64 -7.92 -11.94 0.80 -7.12 7.97 -11.66 14.72 -9.34 4.51 1.56 7.48 5.74 7.48 10.56 0 2.35 -0.52 4.13 -1.77 6.09 -0.34 0.52 -0.62 1 -0.62 1.05 0 0.13 4.12 4.25 4.25 4.25 0.07 0 0.51 -0.30 0.98 -0.65 1.20 -0.87 3.45 -1.95 4.85 -2.31 2.29 -0.59 5.10 -0.59 7.40 0 1.41 0.35 3.66 1.43 4.85 2.31 0.48 0.35 0.91 0.65 0.98 0.65 0.06 0 0.91 -0.82 1.91 -1.81 l1.80 -1.81 -0.45 -0.66 c-0.52 -0.76 -1.01 -1.93 -1.27 -2.98 l-0.17 -0.75 -1.28 0 -1.29 0 -0.25 0.62 c-0.38 0.93 -1.14 1.72 -2.12 2.19 -2 0.98 -4.47 0.30 -5.65 -1.58 -1.86 -2.94 0.27 -6.75 3.75 -6.75 1.76 0 3.38 1.07 4.02 2.64 l0.25 0.62 1.28 0 1.28 0 0.31 -1.15 c0.44 -1.62 1.13 -2.80 2.39 -4.05 1.80 -1.77 3.68 -2.56 6.20 -2.56 2.57 0 4.68 0.91 6.47 2.78 1.59 1.67 2.43 3.80 2.43 6.10 0 2.45 -0.86 4.50 -2.63 6.26 -1.27 1.27 -2.53 1.98 -4.19 2.40 l-0.96 0.22 0 1.29 0 1.28 0.62 0.25 c0.91 0.38 1.70 1.13 2.18 2.10 1 1.98 0.31 4.51 -1.56 5.68 -2.95 1.87 -6.75 -0.27 -6.74 -3.77 0 -0.84 0.07 -1.15 0.44 -1.88 0.48 -0.98 1.27 -1.74 2.19 -2.12 l0.62 -0.25 0 -1.29 0 -1.28 -0.70 -0.15 c-0.98 -0.21 -2.25 -0.75 -3.02 -1.28 l-0.66 -0.45 -1.81 1.80 c-1 1 -1.81 1.86 -1.81 1.91 0 0.07 0.30 0.51 0.65 0.98 0.87 1.20 1.95 3.45 2.31 4.85 0.59 2.29 0.59 5.10 0 7.40 -0.35 1.41 -1.43 3.66 -2.31 4.85 -0.35 0.48 -0.65 0.91 -0.65 0.97 0 0.15 4.12 4.26 4.26 4.26 0.07 0 0.39 -0.18 0.73 -0.42 3.32 -2.29 7.69 -2.64 11.24 -0.91 7.37 3.59 8.54 13.57 2.19 18.73 -2.24 1.81 -4.99 2.64 -8.06 2.40z m3.74 -2.43 l0.68 -0.24 -0.04 -2.01 c-0.04 -1.98 -0.04 -2.03 -0.46 -2.62 -0.70 -1.01 -1.46 -1.45 -2.60 -1.50 -1.17 -0.07 -1.74 0.11 -2.53 0.77 -0.96 0.82 -1.13 1.34 -1.13 3.52 l0 1.84 0.68 0.22 c1.08 0.34 1.15 0.35 2.98 0.31 1.22 -0.03 1.97 -0.13 2.43 -0.30z m-8.20 -3.64 c0.17 -1.28 0.79 -2.55 1.69 -3.38 l0.70 -0.66 -0.35 -0.46 c-1.07 -1.39 -1.25 -3.14 -0.51 -4.65 1.65 -3.35 6.26 -3.35 7.89 -0.01 0.76 1.52 0.56 3.28 -0.49 4.67 l-0.35 0.46 0.70 0.66 c1.05 1 1.56 2.11 1.74 3.97 l0.17 1.50 0.76 -0.79 c0.91 -0.93 1.59 -2.01 2.08 -3.33 0.46 -1.27 0.59 -3.74 0.25 -5.09 -0.66 -2.66 -2.39 -4.82 -4.75 -5.96 -1.55 -0.75 -2.38 -0.93 -4.05 -0.93 -1.67 0 -2.50 0.18 -4.05 0.93 -2.36 1.14 -4.09 3.30 -4.75 5.96 -0.34 1.35 -0.21 3.83 0.25 5.09 0.49 1.32 1.18 2.42 2.08 3.33 l0.77 0.79 0.04 -0.56 c0.01 -0.31 0.10 -1 0.17 -1.53z m-34.41 -1.10 c1.48 -0.70 2.59 -1.83 3.30 -3.30 0.52 -1.08 0.52 -1.11 0.52 -2.85 0 -1.73 0 -1.77 -0.52 -2.84 -0.86 -1.81 -2.19 -3.01 -4.06 -3.63 -0.75 -0.25 -1.14 -0.30 -2.39 -0.25 -1.42 0.04 -1.55 0.07 -2.69 0.63 -1.49 0.75 -2.45 1.72 -3.18 3.23 -0.48 1.01 -0.52 1.21 -0.56 2.57 -0.04 1.24 0 1.63 0.25 2.38 0.58 1.72 1.76 3.14 3.26 3.90 1.28 0.66 1.76 0.76 3.42 0.72 1.46 -0.03 1.60 -0.06 2.64 -0.55z m14.13 -4.19 c0.68 -0.42 1.01 -1.05 1.01 -1.97 0 -1.41 -0.84 -2.25 -2.25 -2.25 -1.41 0 -2.25 0.84 -2.25 2.25 0 1.41 0.84 2.25 2.25 2.25 0.52 0 0.93 -0.08 1.24 -0.28z m26.89 0.07 c0.69 -0.37 1.13 -1.14 1.13 -2.04 0 -1.41 -0.84 -2.25 -2.25 -2.25 -1.41 0 -2.25 0.84 -2.25 2.25 0 1.39 0.84 2.25 2.22 2.25 0.41 0 0.93 -0.10 1.15 -0.21z m-21.11 -10.13 c0.55 -0.11 1.45 -0.38 2.01 -0.60 l1.03 -0.39 0 -3.01 0 -3.02 -0.41 -0.84 c-0.53 -1.08 -1.60 -2.15 -2.69 -2.69 -0.79 -0.38 -0.96 -0.41 -2.46 -0.41 -1.50 0 -1.67 0.03 -2.46 0.41 -1.08 0.53 -2.15 1.60 -2.69 2.69 l-0.41 0.84 0 3.02 0 3.01 1.04 0.41 c0.56 0.21 1.42 0.48 1.90 0.59 1.18 0.25 3.91 0.25 5.13 0z m-10.11 -7.13 c0.51 -2.11 1.90 -3.94 3.87 -5.10 0.22 -0.14 0.20 -0.21 -0.27 -0.70 -2.49 -2.70 -1.70 -7.05 1.58 -8.70 2.76 -1.39 6.05 -0.27 7.44 2.56 0.51 1 0.53 1.14 0.52 2.33 -0.01 1.58 -0.37 2.57 -1.27 3.57 -0.34 0.39 -0.62 0.73 -0.62 0.76 0 0.04 0.31 0.27 0.69 0.51 0.93 0.60 2.05 1.86 2.55 2.83 0.65 1.29 0.84 2.22 0.96 4.47 l0.10 2.08 0.94 -0.94 c1.60 -1.63 2.80 -3.87 3.28 -6.16 0.27 -1.28 0.27 -3.78 0 -5.05 -0.79 -3.73 -3.23 -6.92 -6.61 -8.62 -0.38 -0.20 -1.24 -0.53 -1.90 -0.76 -1.13 -0.38 -1.34 -0.39 -3.66 -0.39 -2.32 0 -2.53 0.01 -3.66 0.39 -2.11 0.70 -3.63 1.62 -5.13 3.09 -1.60 1.58 -2.90 3.97 -3.39 6.27 -0.25 1.21 -0.25 3.81 0.01 5.06 0.48 2.29 1.67 4.53 3.28 6.16 l0.94 0.94 0.08 -1.93 c0.06 -1.07 0.17 -2.26 0.27 -2.67z m-11.53 1.50 c0.69 -0.37 1.13 -1.14 1.13 -2.04 0 -1.41 -0.84 -2.25 -2.25 -2.25 -1.41 0 -2.25 0.84 -2.25 2.25 0 1.39 0.84 2.25 2.22 2.25 0.41 0 0.93 -0.10 1.15 -0.21z m20.62 -7.93 c0.66 -0.30 1.53 -1.25 1.76 -1.94 0.08 -0.27 0.13 -0.93 0.10 -1.45 -0.06 -1.14 -0.49 -1.90 -1.50 -2.60 -0.56 -0.39 -0.69 -0.42 -1.84 -0.42 -1.15 0 -1.28 0.03 -1.84 0.42 -1.01 0.70 -1.45 1.46 -1.50 2.60 -0.03 0.52 0.01 1.18 0.10 1.45 0.22 0.68 1.03 1.56 1.73 1.91 0.79 0.38 2.19 0.39 3.01 0.03z m20.07 -1.21 c0.68 -0.46 0.94 -1.01 0.94 -1.93 0 -1.36 -0.86 -2.22 -2.22 -2.22 -1.42 0 -2.28 0.86 -2.28 2.25 0 1.41 0.84 2.25 2.25 2.25 0.60 0 0.90 -0.08 1.31 -0.35z m-41.34 -11.25 l0.68 -0.24 -0.04 -2.01 c-0.04 -1.98 -0.04 -2.03 -0.46 -2.62 -0.70 -1.01 -1.46 -1.45 -2.60 -1.50 -1.17 -0.07 -1.74 0.11 -2.53 0.77 -0.96 0.82 -1.13 1.34 -1.13 3.52 l0 1.84 0.68 0.22 c1.08 0.34 1.15 0.35 2.98 0.31 1.22 -0.03 1.97 -0.13 2.43 -0.30z m43 -0.31 c1.50 -0.75 2.46 -1.72 3.19 -3.23 0.52 -1.08 0.52 -1.11 0.52 -2.85 0 -1.74 0 -1.77 -0.52 -2.85 -0.73 -1.52 -1.69 -2.49 -3.19 -3.23 l-1.18 -0.59 -1.79 0 -1.79 0 -1.18 0.59 c-1.50 0.75 -2.46 1.72 -3.19 3.23 -0.52 1.08 -0.52 1.11 -0.52 2.85 0 1.74 0 1.77 0.52 2.85 0.65 1.34 1.65 2.43 2.81 3.05 1.38 0.73 1.84 0.84 3.57 0.80 1.52 -0.03 1.59 -0.04 2.74 -0.62z m-51.20 -3.33 c0.17 -1.28 0.79 -2.55 1.69 -3.38 l0.70 -0.66 -0.35 -0.46 c-1.07 -1.39 -1.25 -3.14 -0.51 -4.65 1.65 -3.35 6.26 -3.35 7.89 -0.01 0.76 1.52 0.56 3.28 -0.49 4.67 l-0.35 0.46 0.70 0.66 c1.05 0.98 1.56 2.11 1.76 3.97 l0.17 1.50 0.76 -0.79 c1.59 -1.66 2.38 -3.49 2.49 -5.79 0.08 -1.94 -0.11 -2.92 -0.90 -4.57 -0.89 -1.83 -2.21 -3.15 -4.02 -4.02 -1.55 -0.73 -2.43 -0.94 -4.05 -0.94 -1.63 0 -2.52 0.21 -4.05 0.94 -1.83 0.87 -3.15 2.19 -4.02 4.02 -0.34 0.72 -0.69 1.65 -0.77 2.05 -0.22 1.07 -0.20 3.21 0.06 4.18 0.37 1.43 1.22 3.01 2.21 4.01 l0.87 0.91 0.06 -0.56 c0.01 -0.31 0.10 -1 0.17 -1.53z m33.72 -0.79 c0.68 -0.42 1.01 -1.05 1.01 -1.97 0 -1.41 -0.84 -2.25 -2.25 -2.25 -1.41 0 -2.25 0.84 -2.25 2.25 0 0.91 0.34 1.55 1.01 1.97 0.63 0.38 1.84 0.38 2.47 0z m-27.11 -4.43 c0.69 -0.37 1.13 -1.14 1.13 -2.04 0 -1.41 -0.84 -2.25 -2.25 -2.25 -1.41 0 -2.25 0.84 -2.25 2.25 0 1.39 0.84 2.25 2.22 2.25 0.41 0 0.93 -0.10 1.15 -0.21z"/>
 </g>
</svg>